<?xml version="1.0" encoding="utf-8"?>
<!-- Generator: Adobe Illustrator 17.1.0, SVG Export Plug-In . SVG Version: 6.00 Build 0)  -->
<!DOCTYPE svg PUBLIC "-//W3C//DTD SVG 1.1//EN" "http://www.w3.org/Graphics/SVG/1.1/DTD/svg11.dtd">
<svg version="1.1" id="Camada_1" xmlns="http://www.w3.org/2000/svg" xmlns:xlink="http://www.w3.org/1999/xlink" x="0px" y="0px"
	 viewBox="0 0 238 62" style="enable-background:new 0 0 238 62;" xml:space="preserve">
<path id="shape" style="fill:#3D3D3E;" d="M230.5,47.4c0,4.6-3.7,8.4-8.3,8.5l-102.3,2.5L15.8,55.9c-4.6-0.1-8.3-3.9-8.3-8.5
	l5.3-15.7L7.5,19.9c0-5.7,4.6-10.3,10.3-10.3L119.9,5l100.3,4.7c5.7,0,10.3,4.6,10.3,10.3l-5.3,11.7L230.5,47.4z"/>
<g id="stars">
	<polygon id="star03" style="fill:#8D6B26;" points="120.2,8.7 122.4,13.2 127.4,13.9 123.8,17.4 124.6,22.4 120.2,20 115.8,22.4 
		116.6,17.4 113,13.9 118,13.2 	"/>
	<polygon id="star02" style="fill:#8D6B26;" points="103.9,11.7 105.4,14.6 108.6,15.1 106.2,17.3 106.8,20.5 103.9,19 101.1,20.5 
		101.6,17.3 99.3,15.1 102.5,14.6 	"/>
	<polygon id="star01" style="fill:#8D6B26;" points="135.9,13.4 137.3,16.3 140.5,16.8 138.2,19 138.8,22.2 135.9,20.7 133,22.2 
		133.6,19 131.3,16.8 134.5,16.3 	"/>
</g>
<text transform="matrix(1 0 0 1 34.543 48.3371)" style="fill:#F4A640; font-family:'Oswald'; font-size:23.5181;">FÁBRICA PRÓPRIA</text>
</svg>
